Format                                   : AVI
Format/Info                              : Audio Video Interleave
File size                                : 754 MiB
Duration                                 : 2h 0mn
Overall bit rate                         : 875 Kbps

Video
ID                                       : 0
Format                                   : MPEG-4 Visual
Format profile                           : Advanced Simple@L5
Format settings, BVOP                    : No
Format settings, QPel                    : No
Format settings, GMC                     : No warppoints
Format settings, Matrix                  : Default (H.263)
Codec ID                                 : XVID
Codec ID/Hint                            : XviD
Duration                                 : 2h 0mn
Bit rate                                 : 772 Kbps
Width                                    : 1 024 pixels
Height                                   : 576 pixels
Display aspect ratio                     : 16:9
Frame rate                               : 25.000 fps
Color space                              : YUV
Chroma subsampling                       : 4:2:0
Bit depth                                : 8 bits
Scan type                                : Progressive
Compression mode                         : Lossy
Bits/(Pixel*Frame)                       : 0.052
Stream size                              : 665 MiB (88%)
Writing library                          : XviD 1.1.2 (UTC 2006-11-01)

Audio
ID                                       : 1
Format                                   : MPEG Audio
Format version                           : Version 1
Format profile                           : Layer 3
Codec ID                                 : 55
Codec ID/Hint                            : MP3
Duration                                 : 2h 0mn
Bit rate mode                            : Constant
Bit rate                                 : 96.0 Kbps
Channel(s)                               : 2 channels
Sampling rate                            : 44.1 KHz
Compression mode                         : Lossy
Stream size                              : 82.7 MiB (11%)
Alignment                                : Split accross interleaves
Interleave, duration                     : 80 ms (2.00 video frames)
